<?xml version="1.0" encoding="UTF-8" standalone="no"?>
<!DOCTYPE svg PUBLIC "-//W3C//DTD SVG 1.1//EN"
 "http://www.w3.org/Graphics/SVG/1.1/DTD/svg11.dtd">
<!-- Generated by graphviz version 2.50.0 (0)
 -->
<!-- Title: Blockchain Structure Pages: 1 -->
<svg width="170pt" height="764pt"
 viewBox="0.00 0.00 170.00 764.00" xmlns="http://www.w3.org/2000/svg" xmlns:xlink="http://www.w3.org/1999/xlink">
<g id="graph0" class="graph" transform="scale(1 1) rotate(0) translate(4 760)">
<title>Blockchain Structure</title>
<polygon fill="white" stroke="transparent" points="-4,4 -4,-760 166,-760 166,4 -4,4"/>
<!-- B0 -->
<g id="node1" class="node">
<title>B0</title>
<polygon fill="none" stroke="black" points="126,-756 72,-756 72,-720 126,-720 126,-756"/>
<text text-anchor="middle" x="99" y="-733" font-family="Times,serif" font-size="20.00">B0</text>
</g>
<!-- B1 -->
<g id="node2" class="node">
<title>B1</title>
<polygon fill="none" stroke="blue" points="126,-684 72,-684 72,-648 126,-648 126,-684"/>
<text text-anchor="middle" x="99" y="-662.3" font-family="Times,serif" font-size="14.00">B1</text>
</g>
<!-- B0&#45;&gt;B1 -->
<g id="edge1" class="edge">
<title>B0&#45;&gt;B1</title>
<path fill="none" stroke="black" d="M99,-719.7C99,-711.98 99,-702.71 99,-694.11"/>
<polygon fill="black" stroke="black" points="102.5,-694.1 99,-684.1 95.5,-694.1 102.5,-694.1"/>
</g>
<!-- B2 -->
<g id="node3" class="node">
<title>B2</title>
<polygon fill="none" stroke="blue" points="126,-612 72,-612 72,-576 126,-576 126,-612"/>
<text text-anchor="middle" x="99" y="-590.3" font-family="Times,serif" font-size="14.00">B2</text>
</g>
<!-- B1&#45;&gt;B2 -->
<g id="edge2" class="edge">
<title>B1&#45;&gt;B2</title>
<path fill="none" stroke="black" d="M99,-647.7C99,-639.98 99,-630.71 99,-622.11"/>
<polygon fill="black" stroke="black" points="102.5,-622.1 99,-612.1 95.5,-622.1 102.5,-622.1"/>
</g>
<!-- B3 -->
<g id="node4" class="node">
<title>B3</title>
<polygon fill="none" stroke="blue" points="126,-540 72,-540 72,-504 126,-504 126,-540"/>
<text text-anchor="middle" x="99" y="-518.3" font-family="Times,serif" font-size="14.00">B3</text>
</g>
<!-- B2&#45;&gt;B3 -->
<g id="edge3" class="edge">
<title>B2&#45;&gt;B3</title>
<path fill="none" stroke="black" d="M99,-575.7C99,-567.98 99,-558.71 99,-550.11"/>
<polygon fill="black" stroke="black" points="102.5,-550.1 99,-540.1 95.5,-550.1 102.5,-550.1"/>
</g>
<!-- B4 -->
<g id="node5" class="node">
<title>B4</title>
<polygon fill="none" stroke="red" points="90,-468 36,-468 36,-432 90,-432 90,-468"/>
<text text-anchor="middle" x="63" y="-446.3" font-family="Times,serif" font-size="14.00">B4</text>
</g>
<!-- B3&#45;&gt;B4 -->
<g id="edge4" class="edge">
<title>B3&#45;&gt;B4</title>
<path fill="none" stroke="black" d="M90.1,-503.7C86,-495.73 81.05,-486.1 76.51,-477.26"/>
<polygon fill="black" stroke="black" points="79.48,-475.4 71.8,-468.1 73.26,-478.6 79.48,-475.4"/>
</g>
<!-- B5 -->
<g id="node9" class="node">
<title>B5</title>
<polygon fill="none" stroke="blue" points="162,-468 108,-468 108,-432 162,-432 162,-468"/>
<text text-anchor="middle" x="135" y="-446.3" font-family="Times,serif" font-size="14.00">B5</text>
</g>
<!-- B3&#45;&gt;B5 -->
<g id="edge8" class="edge">
<title>B3&#45;&gt;B5</title>
<path fill="none" stroke="black" d="M107.9,-503.7C112,-495.73 116.95,-486.1 121.49,-477.26"/>
<polygon fill="black" stroke="black" points="124.74,-478.6 126.2,-468.1 118.52,-475.4 124.74,-478.6"/>
</g>
<!-- B6 -->
<g id="node6" class="node">
<title>B6</title>
<polygon fill="none" stroke="red" points="90,-396 36,-396 36,-360 90,-360 90,-396"/>
<text text-anchor="middle" x="63" y="-374.3" font-family="Times,serif" font-size="14.00">B6</text>
</g>
<!-- B4&#45;&gt;B6 -->
<g id="edge5" class="edge">
<title>B4&#45;&gt;B6</title>
<path fill="none" stroke="black" d="M63,-431.7C63,-423.98 63,-414.71 63,-406.11"/>
<polygon fill="black" stroke="black" points="66.5,-406.1 63,-396.1 59.5,-406.1 66.5,-406.1"/>
</g>
<!-- B7 -->
<g id="node7" class="node">
<title>B7</title>
<polygon fill="none" stroke="blue" points="90,-324 36,-324 36,-288 90,-288 90,-324"/>
<text text-anchor="middle" x="63" y="-302.3" font-family="Times,serif" font-size="14.00">B7</text>
</g>
<!-- B6&#45;&gt;B7 -->
<g id="edge6" class="edge">
<title>B6&#45;&gt;B7</title>
<path fill="none" stroke="black" d="M63,-359.7C63,-351.98 63,-342.71 63,-334.11"/>
<polygon fill="black" stroke="black" points="66.5,-334.1 63,-324.1 59.5,-334.1 66.5,-334.1"/>
</g>
<!-- B8 -->
<g id="node8" class="node">
<title>B8</title>
<polygon fill="none" stroke="red" points="54,-252 0,-252 0,-216 54,-216 54,-252"/>
<text text-anchor="middle" x="27" y="-230.3" font-family="Times,serif" font-size="14.00">B8</text>
</g>
<!-- B7&#45;&gt;B8 -->
<g id="edge7" class="edge">
<title>B7&#45;&gt;B8</title>
<path fill="none" stroke="black" d="M54.1,-287.7C50,-279.73 45.05,-270.1 40.51,-261.26"/>
<polygon fill="black" stroke="black" points="43.48,-259.4 35.8,-252.1 37.26,-262.6 43.48,-259.4"/>
</g>
<!-- B9 -->
<g id="node10" class="node">
<title>B9</title>
<polygon fill="none" stroke="blue" points="126,-252 72,-252 72,-216 126,-216 126,-252"/>
<text text-anchor="middle" x="99" y="-230.3" font-family="Times,serif" font-size="14.00">B9</text>
</g>
<!-- B7&#45;&gt;B9 -->
<g id="edge9" class="edge">
<title>B7&#45;&gt;B9</title>
<path fill="none" stroke="black" d="M71.9,-287.7C76,-279.73 80.95,-270.1 85.49,-261.26"/>
<polygon fill="black" stroke="black" points="88.74,-262.6 90.2,-252.1 82.52,-259.4 88.74,-262.6"/>
</g>
<!-- B10 -->
<g id="node11" class="node">
<title>B10</title>
<polygon fill="none" stroke="blue" points="126,-180 72,-180 72,-144 126,-144 126,-180"/>
<text text-anchor="middle" x="99" y="-158.3" font-family="Times,serif" font-size="14.00">B10</text>
</g>
<!-- B9&#45;&gt;B10 -->
<g id="edge10" class="edge">
<title>B9&#45;&gt;B10</title>
<path fill="none" stroke="black" d="M99,-215.7C99,-207.98 99,-198.71 99,-190.11"/>
<polygon fill="black" stroke="black" points="102.5,-190.1 99,-180.1 95.5,-190.1 102.5,-190.1"/>
</g>
<!-- B11 -->
<g id="node12" class="node">
<title>B11</title>
<polygon fill="none" stroke="blue" points="126,-108 72,-108 72,-72 126,-72 126,-108"/>
<text text-anchor="middle" x="99" y="-86.3" font-family="Times,serif" font-size="14.00">B11</text>
</g>
<!-- B10&#45;&gt;B11 -->
<g id="edge11" class="edge">
<title>B10&#45;&gt;B11</title>
<path fill="none" stroke="black" d="M99,-143.7C99,-135.98 99,-126.71 99,-118.11"/>
<polygon fill="black" stroke="black" points="102.5,-118.1 99,-108.1 95.5,-118.1 102.5,-118.1"/>
</g>
<!-- B12 -->
<g id="node13" class="node">
<title>B12</title>
<polygon fill="none" stroke="blue" points="126,-36 72,-36 72,0 126,0 126,-36"/>
<text text-anchor="middle" x="99" y="-14.3" font-family="Times,serif" font-size="14.00">B12</text>
</g>
<!-- B11&#45;&gt;B12 -->
<g id="edge12" class="edge">
<title>B11&#45;&gt;B12</title>
<path fill="none" stroke="black" d="M99,-71.7C99,-63.98 99,-54.71 99,-46.11"/>
<polygon fill="black" stroke="black" points="102.5,-46.1 99,-36.1 95.5,-46.1 102.5,-46.1"/>
</g>
</g>
</svg>
