<?xml version="1.0" encoding="utf-8" standalone="no"?>
<!DOCTYPE svg PUBLIC "-//W3C//DTD SVG 1.1//EN"
  "http://www.w3.org/Graphics/SVG/1.1/DTD/svg11.dtd">
<svg xmlns:xlink="http://www.w3.org/1999/xlink" width="371.52pt" height="280.512pt" viewBox="0 0 371.52 280.512" xmlns="http://www.w3.org/2000/svg" version="1.1">
 <metadata>
  <rdf:RDF xmlns:dc="http://purl.org/dc/elements/1.1/" xmlns:cc="http://creativecommons.org/ns#" xmlns:rdf="http://www.w3.org/1999/02/22-rdf-syntax-ns#">
   <cc:Work>
    <dc:type rdf:resource="http://purl.org/dc/dcmitype/StillImage"/>
    <dc:date>2025-03-22T14:46:11.483163</dc:date>
    <dc:format>image/svg+xml</dc:format>
    <dc:creator>
     <cc:Agent>
      <dc:title>Matplotlib v3.7.1, https://matplotlib.org/</dc:title>
     </cc:Agent>
    </dc:creator>
   </cc:Work>
  </rdf:RDF>
 </metadata>
 <defs>
  <style type="text/css">*{stroke-linejoin: round; stroke-linecap: butt}</style>
 </defs>
 <g id="figure_1">
  <g id="patch_1">
   <path d="M 0 280.512 
L 371.52 280.512 
L 371.52 0 
L 0 0 
z
" style="fill: #ffffff"/>
  </g>
  <g id="axes_1">
   <g id="LineCollection_1">
    <path d="M 111.806951 129.348781 
L 194.58472 146.130713 
" clip-path="url(#p7351c01c11)" style="fill: none; stroke: #000000; stroke-width: 0.948683"/>
    <path d="M 111.806951 129.348781 
L 23.432727 116.123842 
" clip-path="url(#p7351c01c11)" style="fill: none; stroke: #000000; stroke-width: 0.948683"/>
    <path d="M 111.806951 129.348781 
L 185.1163 50.606256 
" clip-path="url(#p7351c01c11)" style="fill: none; stroke: #000000; stroke-width: 0.948683"/>
    <path d="M 194.58472 146.130713 
L 238.267469 161.52266 
" clip-path="url(#p7351c01c11)" style="fill: none; stroke: #000000; stroke-width: 0.948683"/>
    <path d="M 194.58472 146.130713 
L 265.25602 76.057628 
" clip-path="url(#p7351c01c11)" style="fill: none; stroke: #000000; stroke-width: 0.948683"/>
    <path d="M 348.087273 19.296 
L 265.25602 76.057628 
" clip-path="url(#p7351c01c11)" style="fill: none; stroke: #000000; stroke-width: 0.948683"/>
    <path d="M 23.432727 116.123842 
L 49.530888 38.55893 
" clip-path="url(#p7351c01c11)" style="fill: none; stroke: #000000; stroke-width: 0.948683"/>
    <path d="M 295.472447 261.216 
L 238.267469 161.52266 
" clip-path="url(#p7351c01c11)" style="fill: none; stroke: #000000; stroke-width: 0.948683"/>
    <path d="M 238.267469 161.52266 
L 265.25602 76.057628 
" clip-path="url(#p7351c01c11)" style="fill: none; stroke: #000000; stroke-width: 0.948683"/>
    <path d="M 238.267469 161.52266 
L 141.773396 73.341333 
" clip-path="url(#p7351c01c11)" style="fill: none; stroke: #000000; stroke-width: 0.948683"/>
    <path d="M 49.530888 38.55893 
L 141.773396 73.341333 
" clip-path="url(#p7351c01c11)" style="fill: none; stroke: #000000; stroke-width: 0.948683"/>
    <path d="M 265.25602 76.057628 
L 185.1163 50.606256 
" clip-path="url(#p7351c01c11)" style="fill: none; stroke: #000000; stroke-width: 0.948683"/>
    <path d="M 185.1163 50.606256 
L 141.773396 73.341333 
" clip-path="url(#p7351c01c11)" style="fill: none; stroke: #000000; stroke-width: 0.948683"/>
   </g>
   <g id="text_1">
    <g id="patch_2">
     <path d="M 146.861078 139.375452 
L 158.394854 141.71375 
Q 159.510576 141.939945 159.736771 140.824223 
L 160.421602 137.446259 
Q 160.647798 136.330537 159.532076 136.104341 
L 147.9983 133.766044 
Q 146.882578 133.539848 146.656382 134.65557 
L 145.971552 138.033535 
Q 145.745356 139.149257 146.861078 139.375452 
z
" clip-path="url(#p7351c01c11)" style="fill: #ffffff; stroke: #ffffff; stroke-linejoin: miter"/>
    </g>
    <g clip-path="url(#p7351c01c11)">
     <!-- BW:5.0 -->
     <g transform="translate(147.248556 137.464197) rotate(-348.539483) scale(0.037947 -0.037947)">
      <defs>
       <path id="TimesNewRomanPSMT-42" d="M 2956 2163 
Q 3397 2069 3616 1863 
Q 3919 1575 3919 1159 
Q 3919 844 3719 555 
Q 3519 266 3170 133 
Q 2822 0 2106 0 
L 106 0 
L 106 116 
L 266 116 
Q 531 116 647 284 
Q 719 394 719 750 
L 719 3488 
Q 719 3881 628 3984 
Q 506 4122 266 4122 
L 106 4122 
L 106 4238 
L 1938 4238 
Q 2450 4238 2759 4163 
Q 3228 4050 3475 3764 
Q 3722 3478 3722 3106 
Q 3722 2788 3528 2536 
Q 3334 2284 2956 2163 
z
M 1319 2331 
Q 1434 2309 1582 2298 
Q 1731 2288 1909 2288 
Q 2366 2288 2595 2386 
Q 2825 2484 2947 2687 
Q 3069 2891 3069 3131 
Q 3069 3503 2766 3765 
Q 2463 4028 1881 4028 
Q 1569 4028 1319 3959 
L 1319 2331 
z
M 1319 306 
Q 1681 222 2034 222 
Q 2600 222 2897 476 
Q 3194 731 3194 1106 
Q 3194 1353 3059 1581 
Q 2925 1809 2622 1940 
Q 2319 2072 1872 2072 
Q 1678 2072 1540 2065 
Q 1403 2059 1319 2044 
L 1319 306 
z
" transform="scale(0.015625)"/>
       <path id="TimesNewRomanPSMT-57" d="M 5991 4238 
L 5991 4122 
Q 5825 4122 5722 4062 
Q 5619 4003 5525 3841 
Q 5463 3731 5328 3319 
L 4147 -97 
L 4022 -97 
L 3056 2613 
L 2097 -97 
L 1984 -97 
L 725 3422 
Q 584 3816 547 3888 
Q 484 4006 376 4064 
Q 269 4122 84 4122 
L 84 4238 
L 1653 4238 
L 1653 4122 
L 1578 4122 
Q 1413 4122 1325 4047 
Q 1238 3972 1238 3866 
Q 1238 3756 1375 3363 
L 2209 984 
L 2913 3006 
L 2788 3363 
L 2688 3647 
Q 2622 3803 2541 3922 
Q 2500 3981 2441 4022 
Q 2363 4078 2284 4103 
Q 2225 4122 2097 4122 
L 2097 4238 
L 3747 4238 
L 3747 4122 
L 3634 4122 
Q 3459 4122 3378 4047 
Q 3297 3972 3297 3844 
Q 3297 3684 3438 3288 
L 4250 984 
L 5056 3319 
Q 5194 3706 5194 3856 
Q 5194 3928 5148 3990 
Q 5103 4053 5034 4078 
Q 4916 4122 4725 4122 
L 4725 4238 
L 5991 4238 
z
" transform="scale(0.015625)"/>
       <path id="TimesNewRomanPSMT-3a" d="M 903 2950 
Q 1047 2950 1148 2848 
Q 1250 2747 1250 2603 
Q 1250 2459 1148 2357 
Q 1047 2256 903 2256 
Q 759 2256 657 2357 
Q 556 2459 556 2603 
Q 556 2747 657 2848 
Q 759 2950 903 2950 
z
M 897 609 
Q 1044 609 1145 506 
Q 1247 403 1247 259 
Q 1247 116 1144 14 
Q 1041 -88 897 -88 
Q 753 -88 651 14 
Q 550 116 550 259 
Q 550 403 651 506 
Q 753 609 897 609 
z
" transform="scale(0.015625)"/>
       <path id="TimesNewRomanPSMT-35" d="M 2778 4238 
L 2534 3706 
L 1259 3706 
L 981 3138 
Q 1809 3016 2294 2522 
Q 2709 2097 2709 1522 
Q 2709 1188 2573 903 
Q 2438 619 2231 419 
Q 2025 219 1772 97 
Q 1413 -75 1034 -75 
Q 653 -75 479 54 
Q 306 184 306 341 
Q 306 428 378 495 
Q 450 563 559 563 
Q 641 563 702 538 
Q 763 513 909 409 
Q 1144 247 1384 247 
Q 1750 247 2026 523 
Q 2303 800 2303 1197 
Q 2303 1581 2056 1914 
Q 1809 2247 1375 2428 
Q 1034 2569 447 2591 
L 1259 4238 
L 2778 4238 
z
" transform="scale(0.015625)"/>
       <path id="TimesNewRomanPSMT-2e" d="M 800 606 
Q 947 606 1047 504 
Q 1147 403 1147 259 
Q 1147 116 1045 14 
Q 944 -88 800 -88 
Q 656 -88 554 14 
Q 453 116 453 259 
Q 453 406 554 506 
Q 656 606 800 606 
z
" transform="scale(0.015625)"/>
       <path id="TimesNewRomanPSMT-30" d="M 231 2094 
Q 231 2819 450 3342 
Q 669 3866 1031 4122 
Q 1313 4325 1613 4325 
Q 2100 4325 2488 3828 
Q 2972 3213 2972 2159 
Q 2972 1422 2759 906 
Q 2547 391 2217 158 
Q 1888 -75 1581 -75 
Q 975 -75 572 641 
Q 231 1244 231 2094 
z
M 844 2016 
Q 844 1141 1059 588 
Q 1238 122 1591 122 
Q 1759 122 1940 273 
Q 2122 425 2216 781 
Q 2359 1319 2359 2297 
Q 2359 3022 2209 3506 
Q 2097 3866 1919 4016 
Q 1791 4119 1609 4119 
Q 1397 4119 1231 3928 
Q 1006 3669 925 3112 
Q 844 2556 844 2016 
z
" transform="scale(0.015625)"/>
      </defs>
      <use xlink:href="#TimesNewRomanPSMT-42"/>
      <use xlink:href="#TimesNewRomanPSMT-57" x="66.699219"/>
      <use xlink:href="#TimesNewRomanPSMT-3a" x="157.333984"/>
      <use xlink:href="#TimesNewRomanPSMT-35" x="185.117188"/>
      <use xlink:href="#TimesNewRomanPSMT-2e" x="235.117188"/>
      <use xlink:href="#TimesNewRomanPSMT-30" x="260.117188"/>
     </g>
    </g>
   </g>
   <g id="text_2">
    <g id="patch_3">
     <path d="M 61.379764 124.696131 
L 73.018581 126.437845 
Q 74.144464 126.60633 74.312949 125.480447 
L 74.823055 122.071719 
Q 74.99154 120.945836 73.865657 120.777351 
L 62.22684 119.035636 
Q 61.100957 118.867151 60.932472 119.993034 
L 60.422366 123.401763 
Q 60.253881 124.527646 61.379764 124.696131 
z
" clip-path="url(#p7351c01c11)" style="fill: #ffffff; stroke: #ffffff; stroke-linejoin: miter"/>
    </g>
    <g clip-path="url(#p7351c01c11)">
     <!-- BW:5.0 -->
     <g transform="translate(61.668383 122.76747) rotate(-351.489015) scale(0.037947 -0.037947)">
      <use xlink:href="#TimesNewRomanPSMT-42"/>
      <use xlink:href="#TimesNewRomanPSMT-57" x="66.699219"/>
      <use xlink:href="#TimesNewRomanPSMT-3a" x="157.333984"/>
      <use xlink:href="#TimesNewRomanPSMT-35" x="185.117188"/>
      <use xlink:href="#TimesNewRomanPSMT-2e" x="235.117188"/>
      <use xlink:href="#TimesNewRomanPSMT-30" x="260.117188"/>
     </g>
    </g>
   </g>
   <g id="text_3">
    <g id="patch_4">
     <path d="M 146.545387 96.23557 
L 154.564448 87.622192 
Q 155.340173 86.788976 154.506957 86.01325 
L 151.984306 83.664661 
Q 151.151089 82.888936 150.375364 83.722152 
L 142.356303 92.33553 
Q 141.580577 93.168747 142.413794 93.944472 
L 144.936445 96.293062 
Q 145.769661 97.068787 146.545387 96.23557 
z
" clip-path="url(#p7351c01c11)" style="fill: #ffffff; stroke: #ffffff; stroke-linejoin: miter"/>
    </g>
    <g clip-path="url(#p7351c01c11)">
     <!-- BW:5.0 -->
     <g transform="translate(145.118069 94.906737) rotate(-47.046444) scale(0.037947 -0.037947)">
      <use xlink:href="#TimesNewRomanPSMT-42"/>
      <use xlink:href="#TimesNewRomanPSMT-57" x="66.699219"/>
      <use xlink:href="#TimesNewRomanPSMT-3a" x="157.333984"/>
      <use xlink:href="#TimesNewRomanPSMT-35" x="185.117188"/>
      <use xlink:href="#TimesNewRomanPSMT-2e" x="235.117188"/>
      <use xlink:href="#TimesNewRomanPSMT-30" x="260.117188"/>
     </g>
    </g>
   </g>
   <g id="text_4">
    <g id="patch_5">
     <path d="M 209.926684 154.570788 
L 221.026219 158.481793 
Q 222.099934 158.860125 222.478266 157.78641 
L 223.623705 154.535624 
Q 224.002037 153.461908 222.928321 153.083577 
L 211.828787 149.172572 
Q 210.755071 148.79424 210.376739 149.867955 
L 209.2313 153.118741 
Q 208.852969 154.192457 209.926684 154.570788 
z
" clip-path="url(#p7351c01c11)" style="fill: #ffffff; stroke: #ffffff; stroke-linejoin: miter"/>
    </g>
    <g clip-path="url(#p7351c01c11)">
     <!-- BW:5.0 -->
     <g transform="translate(210.574774 152.731491) rotate(-340.589705) scale(0.037947 -0.037947)">
      <use xlink:href="#TimesNewRomanPSMT-42"/>
      <use xlink:href="#TimesNewRomanPSMT-57" x="66.699219"/>
      <use xlink:href="#TimesNewRomanPSMT-3a" x="157.333984"/>
      <use xlink:href="#TimesNewRomanPSMT-35" x="185.117188"/>
      <use xlink:href="#TimesNewRomanPSMT-2e" x="235.117188"/>
      <use xlink:href="#TimesNewRomanPSMT-30" x="260.117188"/>
     </g>
    </g>
   </g>
   <g id="text_5">
    <g id="patch_6">
     <path d="M 227.756608 117.269666 
L 236.11343 108.983584 
Q 236.921828 108.182028 236.120272 107.37363 
L 233.693479 104.926118 
Q 232.891923 104.11772 232.083524 104.919275 
L 223.726703 113.205358 
Q 222.918305 114.006914 223.719861 114.815312 
L 226.146654 117.262824 
Q 226.94821 118.071222 227.756608 117.269666 
z
" clip-path="url(#p7351c01c11)" style="fill: #ffffff; stroke: #ffffff; stroke-linejoin: miter"/>
    </g>
    <g clip-path="url(#p7351c01c11)">
     <!-- BW:5.0 -->
     <g transform="translate(226.383527 115.884863) rotate(-44.756473) scale(0.037947 -0.037947)">
      <use xlink:href="#TimesNewRomanPSMT-42"/>
      <use xlink:href="#TimesNewRomanPSMT-57" x="66.699219"/>
      <use xlink:href="#TimesNewRomanPSMT-3a" x="157.333984"/>
      <use xlink:href="#TimesNewRomanPSMT-35" x="185.117188"/>
      <use xlink:href="#TimesNewRomanPSMT-2e" x="235.117188"/>
      <use xlink:href="#TimesNewRomanPSMT-30" x="260.117188"/>
     </g>
    </g>
   </g>
   <g id="text_6">
    <g id="patch_7">
     <path d="M 303.434387 53.364427 
L 313.142158 46.711999 
Q 314.081241 46.068475 313.437718 45.129392 
L 311.489382 42.28622 
Q 310.845858 41.347137 309.906775 41.990661 
L 300.199004 48.643089 
Q 299.259921 49.286613 299.903444 50.225696 
L 301.85178 53.068868 
Q 302.495304 54.007951 303.434387 53.364427 
z
" clip-path="url(#p7351c01c11)" style="fill: #ffffff; stroke: #ffffff; stroke-linejoin: miter"/>
    </g>
    <g clip-path="url(#p7351c01c11)">
     <!-- BW:5.0 -->
     <g transform="translate(302.332017 51.755758) rotate(-34.421603) scale(0.037947 -0.037947)">
      <use xlink:href="#TimesNewRomanPSMT-42"/>
      <use xlink:href="#TimesNewRomanPSMT-57" x="66.699219"/>
      <use xlink:href="#TimesNewRomanPSMT-3a" x="157.333984"/>
      <use xlink:href="#TimesNewRomanPSMT-35" x="185.117188"/>
      <use xlink:href="#TimesNewRomanPSMT-2e" x="235.117188"/>
      <use xlink:href="#TimesNewRomanPSMT-30" x="260.117188"/>
     </g>
    </g>
   </g>
   <g id="text_7">
    <g id="patch_8">
     <path d="M 37.316952 83.833127 
L 41.069911 72.679163 
Q 41.432955 71.600182 40.353974 71.237139 
L 37.087247 70.137988 
Q 36.008266 69.774945 35.645223 70.853926 
L 31.892264 82.00789 
Q 31.52922 83.086871 32.608201 83.449914 
L 35.874928 84.549065 
Q 36.953909 84.912108 37.316952 83.833127 
z
" clip-path="url(#p7351c01c11)" style="fill: #ffffff; stroke: #ffffff; stroke-linejoin: miter"/>
    </g>
    <g clip-path="url(#p7351c01c11)">
     <!-- BW:5.0 -->
     <g transform="translate(35.468635 83.211227) rotate(-71.403527) scale(0.037947 -0.037947)">
      <use xlink:href="#TimesNewRomanPSMT-42"/>
      <use xlink:href="#TimesNewRomanPSMT-57" x="66.699219"/>
      <use xlink:href="#TimesNewRomanPSMT-3a" x="157.333984"/>
      <use xlink:href="#TimesNewRomanPSMT-35" x="185.117188"/>
      <use xlink:href="#TimesNewRomanPSMT-2e" x="235.117188"/>
      <use xlink:href="#TimesNewRomanPSMT-30" x="260.117188"/>
     </g>
    </g>
   </g>
   <g id="text_8">
    <g id="patch_9">
     <path d="M 261.459913 207.691068 
L 267.316993 217.89843 
Q 267.883579 218.885841 268.87099 218.319255 
L 271.86048 216.603858 
Q 272.847891 216.037272 272.281305 215.049861 
L 266.424225 204.842499 
Q 265.857639 203.855088 264.870228 204.421674 
L 261.880738 206.137071 
Q 260.893327 206.703657 261.459913 207.691068 
z
" clip-path="url(#p7351c01c11)" style="fill: #ffffff; stroke: #ffffff; stroke-linejoin: miter"/>
    </g>
    <g clip-path="url(#p7351c01c11)">
     <!-- BW:5.0 -->
     <g transform="translate(263.151368 206.720495) rotate(-299.84761) scale(0.037947 -0.037947)">
      <use xlink:href="#TimesNewRomanPSMT-42"/>
      <use xlink:href="#TimesNewRomanPSMT-57" x="66.699219"/>
      <use xlink:href="#TimesNewRomanPSMT-3a" x="157.333984"/>
      <use xlink:href="#TimesNewRomanPSMT-35" x="185.117188"/>
      <use xlink:href="#TimesNewRomanPSMT-2e" x="235.117188"/>
      <use xlink:href="#TimesNewRomanPSMT-30" x="260.117188"/>
     </g>
    </g>
   </g>
   <g id="text_9">
    <g id="patch_10">
     <path d="M 252.718719 125.263178 
L 256.26251 114.041005 
Q 256.605319 112.955426 255.51974 112.612617 
L 252.233037 111.574726 
Q 251.147458 111.231917 250.804648 112.317496 
L 247.260858 123.539669 
Q 246.918048 124.625248 248.003627 124.968057 
L 251.290331 126.005948 
Q 252.37591 126.348757 252.718719 125.263178 
z
" clip-path="url(#p7351c01c11)" style="fill: #ffffff; stroke: #ffffff; stroke-linejoin: miter"/>
    </g>
    <g clip-path="url(#p7351c01c11)">
     <!-- BW:5.0 -->
     <g transform="translate(250.8591 124.675939) rotate(-72.47468) scale(0.037947 -0.037947)">
      <use xlink:href="#TimesNewRomanPSMT-42"/>
      <use xlink:href="#TimesNewRomanPSMT-57" x="66.699219"/>
      <use xlink:href="#TimesNewRomanPSMT-3a" x="157.333984"/>
      <use xlink:href="#TimesNewRomanPSMT-35" x="185.117188"/>
      <use xlink:href="#TimesNewRomanPSMT-2e" x="235.117188"/>
      <use xlink:href="#TimesNewRomanPSMT-30" x="260.117188"/>
     </g>
    </g>
   </g>
   <g id="text_10">
    <g id="patch_11">
     <path d="M 183.746191 115.575006 
L 192.433496 123.513919 
Q 193.273864 124.281891 194.041837 123.441523 
L 196.366953 120.897221 
Q 197.134925 120.056853 196.294557 119.288881 
L 187.607252 111.349967 
Q 186.766883 110.581995 185.998911 111.422363 
L 183.673795 113.966665 
Q 182.905823 114.807033 183.746191 115.575006 
z
" clip-path="url(#p7351c01c11)" style="fill: #ffffff; stroke: #ffffff; stroke-linejoin: miter"/>
    </g>
    <g clip-path="url(#p7351c01c11)">
     <!-- BW:5.0 -->
     <g transform="translate(185.061743 114.135438) rotate(-317.577301) scale(0.037947 -0.037947)">
      <use xlink:href="#TimesNewRomanPSMT-42"/>
      <use xlink:href="#TimesNewRomanPSMT-57" x="66.699219"/>
      <use xlink:href="#TimesNewRomanPSMT-3a" x="157.333984"/>
      <use xlink:href="#TimesNewRomanPSMT-35" x="185.117188"/>
      <use xlink:href="#TimesNewRomanPSMT-2e" x="235.117188"/>
      <use xlink:href="#TimesNewRomanPSMT-30" x="260.117188"/>
     </g>
    </g>
   </g>
   <g id="text_11">
    <g id="patch_12">
     <path d="M 89.138337 56.552389 
L 100.149916 60.704587 
Q 101.215123 61.106251 101.616786 60.041044 
L 102.832865 56.816018 
Q 103.234529 55.750811 102.169322 55.349147 
L 91.157743 51.196949 
Q 90.092535 50.795285 89.690872 51.860492 
L 88.474793 55.085518 
Q 88.073129 56.150725 89.138337 56.552389 
z
" clip-path="url(#p7351c01c11)" style="fill: #ffffff; stroke: #ffffff; stroke-linejoin: miter"/>
    </g>
    <g clip-path="url(#p7351c01c11)">
     <!-- BW:5.0 -->
     <g transform="translate(89.826395 54.727667) rotate(-339.339762) scale(0.037947 -0.037947)">
      <use xlink:href="#TimesNewRomanPSMT-42"/>
      <use xlink:href="#TimesNewRomanPSMT-57" x="66.699219"/>
      <use xlink:href="#TimesNewRomanPSMT-3a" x="157.333984"/>
      <use xlink:href="#TimesNewRomanPSMT-35" x="185.117188"/>
      <use xlink:href="#TimesNewRomanPSMT-2e" x="235.117188"/>
      <use xlink:href="#TimesNewRomanPSMT-30" x="260.117188"/>
     </g>
    </g>
   </g>
   <g id="text_12">
    <g id="patch_13">
     <path d="M 218.71118 64.278187 
L 229.927532 67.840359 
Q 231.012547 68.184947 231.357135 67.099931 
L 232.400409 63.814932 
Q 232.744997 62.729917 231.659981 62.385329 
L 220.443629 58.823156 
Q 219.358613 58.478569 219.014026 59.563585 
L 217.970751 62.848583 
Q 217.626164 63.933599 218.71118 64.278187 
z
" clip-path="url(#p7351c01c11)" style="fill: #ffffff; stroke: #ffffff; stroke-linejoin: miter"/>
    </g>
    <g clip-path="url(#p7351c01c11)">
     <!-- BW:5.0 -->
     <g transform="translate(219.301465 62.419532) rotate(-342.380804) scale(0.037947 -0.037947)">
      <use xlink:href="#TimesNewRomanPSMT-42"/>
      <use xlink:href="#TimesNewRomanPSMT-57" x="66.699219"/>
      <use xlink:href="#TimesNewRomanPSMT-3a" x="157.333984"/>
      <use xlink:href="#TimesNewRomanPSMT-35" x="185.117188"/>
      <use xlink:href="#TimesNewRomanPSMT-2e" x="235.117188"/>
      <use xlink:href="#TimesNewRomanPSMT-30" x="260.117188"/>
     </g>
    </g>
   </g>
   <g id="text_13">
    <g id="patch_14">
     <path d="M 159.563079 67.241501 
L 169.984784 61.774903 
Q 170.992929 61.246091 170.464117 60.237945 
L 168.863082 57.185679 
Q 168.33427 56.177534 167.326124 56.706346 
L 156.90442 62.172945 
Q 155.896274 62.701757 156.425087 63.709903 
L 158.026121 66.762168 
Q 158.554934 67.770314 159.563079 67.241501 
z
" clip-path="url(#p7351c01c11)" style="fill: #ffffff; stroke: #ffffff; stroke-linejoin: miter"/>
    </g>
    <g clip-path="url(#p7351c01c11)">
     <!-- BW:5.0 -->
     <g transform="translate(158.657213 65.514527) rotate(-27.678797) scale(0.037947 -0.037947)">
      <use xlink:href="#TimesNewRomanPSMT-42"/>
      <use xlink:href="#TimesNewRomanPSMT-57" x="66.699219"/>
      <use xlink:href="#TimesNewRomanPSMT-3a" x="157.333984"/>
      <use xlink:href="#TimesNewRomanPSMT-35" x="185.117188"/>
      <use xlink:href="#TimesNewRomanPSMT-2e" x="235.117188"/>
      <use xlink:href="#TimesNewRomanPSMT-30" x="260.117188"/>
     </g>
    </g>
   </g>
   <g id="matplotlib.axis_1">
    <g id="xtick_1"/>
    <g id="xtick_2"/>
    <g id="xtick_3"/>
    <g id="xtick_4"/>
    <g id="xtick_5"/>
    <g id="xtick_6"/>
    <g id="xtick_7"/>
    <g id="xtick_8"/>
    <g id="xtick_9"/>
   </g>
   <g id="matplotlib.axis_2">
    <g id="ytick_1"/>
    <g id="ytick_2"/>
    <g id="ytick_3"/>
    <g id="ytick_4"/>
    <g id="ytick_5"/>
    <g id="ytick_6"/>
   </g>
   <g id="PathCollection_1">
    <defs>
     <path id="C0_0_bc182fda75" d="M 0 6.887247 
C 1.826519 6.887247 3.578475 6.161563 4.870019 4.870019 
C 6.161563 3.578475 6.887247 1.826519 6.887247 -0 
C 6.887247 -1.826519 6.161563 -3.578475 4.870019 -4.870019 
C 3.578475 -6.161563 1.826519 -6.887247 0 -6.887247 
C -1.826519 -6.887247 -3.578475 -6.161563 -4.870019 -4.870019 
C -6.161563 -3.578475 -6.887247 -1.826519 -6.887247 0 
C -6.887247 1.826519 -6.161563 3.578475 -4.870019 4.870019 
C -3.578475 6.161563 -1.826519 6.887247 0 6.887247 
z
"/>
    </defs>
    <g clip-path="url(#p7351c01c11)">
     <use xlink:href="#C0_0_bc182fda75" x="111.806951" y="129.348781" style="fill: #1f78b4; stroke: #1f78b4"/>
    </g>
    <g clip-path="url(#p7351c01c11)">
     <use xlink:href="#C0_0_bc182fda75" x="194.58472" y="146.130713" style="fill: #ff0000; stroke: #ff0000"/>
    </g>
    <g clip-path="url(#p7351c01c11)">
     <use xlink:href="#C0_0_bc182fda75" x="348.087273" y="19.296" style="fill: #ff0000; stroke: #ff0000"/>
    </g>
    <g clip-path="url(#p7351c01c11)">
     <use xlink:href="#C0_0_bc182fda75" x="23.432727" y="116.123842" style="fill: #ff0000; stroke: #ff0000"/>
    </g>
    <g clip-path="url(#p7351c01c11)">
     <use xlink:href="#C0_0_bc182fda75" x="295.472447" y="261.216" style="fill: #1f78b4; stroke: #1f78b4"/>
    </g>
    <g clip-path="url(#p7351c01c11)">
     <use xlink:href="#C0_0_bc182fda75" x="238.267469" y="161.52266" style="fill: #1f78b4; stroke: #1f78b4"/>
    </g>
    <g clip-path="url(#p7351c01c11)">
     <use xlink:href="#C0_0_bc182fda75" x="49.530888" y="38.55893" style="fill: #1f78b4; stroke: #1f78b4"/>
    </g>
    <g clip-path="url(#p7351c01c11)">
     <use xlink:href="#C0_0_bc182fda75" x="265.25602" y="76.057628" style="fill: #1f78b4; stroke: #1f78b4"/>
    </g>
    <g clip-path="url(#p7351c01c11)">
     <use xlink:href="#C0_0_bc182fda75" x="185.1163" y="50.606256" style="fill: #1f78b4; stroke: #1f78b4"/>
    </g>
    <g clip-path="url(#p7351c01c11)">
     <use xlink:href="#C0_0_bc182fda75" x="141.773396" y="73.341333" style="fill: #1f78b4; stroke: #1f78b4"/>
    </g>
   </g>
   <g id="text_14">
    <g clip-path="url(#p7351c01c11)">
     <!-- 0 -->
     <g transform="translate(109.435243 131.627844) scale(0.094868 -0.094868)">
      <use xlink:href="#TimesNewRomanPSMT-30"/>
     </g>
    </g>
   </g>
   <g id="text_15">
    <g clip-path="url(#p7351c01c11)">
     <!-- 1 -->
     <g transform="translate(192.213012 148.409776) scale(0.094868 -0.094868)">
      <defs>
       <path id="TimesNewRomanPSMT-31" d="M 750 3822 
L 1781 4325 
L 1884 4325 
L 1884 747 
Q 1884 391 1914 303 
Q 1944 216 2037 169 
Q 2131 122 2419 116 
L 2419 0 
L 825 0 
L 825 116 
Q 1125 122 1212 167 
Q 1300 213 1334 289 
Q 1369 366 1369 747 
L 1369 3034 
Q 1369 3497 1338 3628 
Q 1316 3728 1258 3775 
Q 1200 3822 1119 3822 
Q 1003 3822 797 3725 
L 750 3822 
z
" transform="scale(0.015625)"/>
      </defs>
      <use xlink:href="#TimesNewRomanPSMT-31"/>
     </g>
    </g>
   </g>
   <g id="text_16">
    <g clip-path="url(#p7351c01c11)">
     <!-- 2 -->
     <g transform="translate(345.715564 21.575063) scale(0.094868 -0.094868)">
      <defs>
       <path id="TimesNewRomanPSMT-32" d="M 2934 816 
L 2638 0 
L 138 0 
L 138 116 
Q 1241 1122 1691 1759 
Q 2141 2397 2141 2925 
Q 2141 3328 1894 3587 
Q 1647 3847 1303 3847 
Q 991 3847 742 3664 
Q 494 3481 375 3128 
L 259 3128 
Q 338 3706 661 4015 
Q 984 4325 1469 4325 
Q 1984 4325 2329 3994 
Q 2675 3663 2675 3213 
Q 2675 2891 2525 2569 
Q 2294 2063 1775 1497 
Q 997 647 803 472 
L 1909 472 
Q 2247 472 2383 497 
Q 2519 522 2628 598 
Q 2738 675 2819 816 
L 2934 816 
z
" transform="scale(0.015625)"/>
      </defs>
      <use xlink:href="#TimesNewRomanPSMT-32"/>
     </g>
    </g>
   </g>
   <g id="text_17">
    <g clip-path="url(#p7351c01c11)">
     <!-- 3 -->
     <g transform="translate(21.061019 118.402905) scale(0.094868 -0.094868)">
      <defs>
       <path id="TimesNewRomanPSMT-33" d="M 325 3431 
Q 506 3859 782 4092 
Q 1059 4325 1472 4325 
Q 1981 4325 2253 3994 
Q 2459 3747 2459 3466 
Q 2459 3003 1878 2509 
Q 2269 2356 2469 2072 
Q 2669 1788 2669 1403 
Q 2669 853 2319 450 
Q 1863 -75 997 -75 
Q 569 -75 414 31 
Q 259 138 259 259 
Q 259 350 332 419 
Q 406 488 509 488 
Q 588 488 669 463 
Q 722 447 909 348 
Q 1097 250 1169 231 
Q 1284 197 1416 197 
Q 1734 197 1970 444 
Q 2206 691 2206 1028 
Q 2206 1275 2097 1509 
Q 2016 1684 1919 1775 
Q 1784 1900 1550 2001 
Q 1316 2103 1072 2103 
L 972 2103 
L 972 2197 
Q 1219 2228 1467 2375 
Q 1716 2522 1828 2728 
Q 1941 2934 1941 3181 
Q 1941 3503 1739 3701 
Q 1538 3900 1238 3900 
Q 753 3900 428 3381 
L 325 3431 
z
" transform="scale(0.015625)"/>
      </defs>
      <use xlink:href="#TimesNewRomanPSMT-33"/>
     </g>
    </g>
   </g>
   <g id="text_18">
    <g clip-path="url(#p7351c01c11)">
     <!-- 4 -->
     <g transform="translate(293.100738 263.495063) scale(0.094868 -0.094868)">
      <defs>
       <path id="TimesNewRomanPSMT-34" d="M 2978 1563 
L 2978 1119 
L 2409 1119 
L 2409 0 
L 1894 0 
L 1894 1119 
L 100 1119 
L 100 1519 
L 2066 4325 
L 2409 4325 
L 2409 1563 
L 2978 1563 
z
M 1894 1563 
L 1894 3666 
L 406 1563 
L 1894 1563 
z
" transform="scale(0.015625)"/>
      </defs>
      <use xlink:href="#TimesNewRomanPSMT-34"/>
     </g>
    </g>
   </g>
   <g id="text_19">
    <g clip-path="url(#p7351c01c11)">
     <!-- 5 -->
     <g transform="translate(235.895761 163.801723) scale(0.094868 -0.094868)">
      <use xlink:href="#TimesNewRomanPSMT-35"/>
     </g>
    </g>
   </g>
   <g id="text_20">
    <g clip-path="url(#p7351c01c11)">
     <!-- 6 -->
     <g transform="translate(47.15918 40.837993) scale(0.094868 -0.094868)">
      <defs>
       <path id="TimesNewRomanPSMT-36" d="M 2869 4325 
L 2869 4209 
Q 2456 4169 2195 4045 
Q 1934 3922 1679 3669 
Q 1425 3416 1258 3105 
Q 1091 2794 978 2366 
Q 1428 2675 1881 2675 
Q 2316 2675 2634 2325 
Q 2953 1975 2953 1425 
Q 2953 894 2631 456 
Q 2244 -75 1606 -75 
Q 1172 -75 869 213 
Q 275 772 275 1663 
Q 275 2231 503 2743 
Q 731 3256 1154 3653 
Q 1578 4050 1965 4187 
Q 2353 4325 2688 4325 
L 2869 4325 
z
M 925 2138 
Q 869 1716 869 1456 
Q 869 1156 980 804 
Q 1091 453 1309 247 
Q 1469 100 1697 100 
Q 1969 100 2183 356 
Q 2397 613 2397 1088 
Q 2397 1622 2184 2012 
Q 1972 2403 1581 2403 
Q 1463 2403 1327 2353 
Q 1191 2303 925 2138 
z
" transform="scale(0.015625)"/>
      </defs>
      <use xlink:href="#TimesNewRomanPSMT-36"/>
     </g>
    </g>
   </g>
   <g id="text_21">
    <g clip-path="url(#p7351c01c11)">
     <!-- 7 -->
     <g transform="translate(262.884312 78.336691) scale(0.094868 -0.094868)">
      <defs>
       <path id="TimesNewRomanPSMT-37" d="M 644 4238 
L 2916 4238 
L 2916 4119 
L 1503 -88 
L 1153 -88 
L 2419 3728 
L 1253 3728 
Q 900 3728 750 3644 
Q 488 3500 328 3200 
L 238 3234 
L 644 4238 
z
" transform="scale(0.015625)"/>
      </defs>
      <use xlink:href="#TimesNewRomanPSMT-37"/>
     </g>
    </g>
   </g>
   <g id="text_22">
    <g clip-path="url(#p7351c01c11)">
     <!-- 8 -->
     <g transform="translate(182.744592 52.88532) scale(0.094868 -0.094868)">
      <defs>
       <path id="TimesNewRomanPSMT-38" d="M 1228 2134 
Q 725 2547 579 2797 
Q 434 3047 434 3316 
Q 434 3728 753 4026 
Q 1072 4325 1600 4325 
Q 2113 4325 2425 4047 
Q 2738 3769 2738 3413 
Q 2738 3175 2569 2928 
Q 2400 2681 1866 2347 
Q 2416 1922 2594 1678 
Q 2831 1359 2831 1006 
Q 2831 559 2490 242 
Q 2150 -75 1597 -75 
Q 994 -75 656 303 
Q 388 606 388 966 
Q 388 1247 577 1523 
Q 766 1800 1228 2134 
z
M 1719 2469 
Q 2094 2806 2194 3001 
Q 2294 3197 2294 3444 
Q 2294 3772 2109 3958 
Q 1925 4144 1606 4144 
Q 1288 4144 1088 3959 
Q 888 3775 888 3528 
Q 888 3366 970 3203 
Q 1053 3041 1206 2894 
L 1719 2469 
z
M 1375 2016 
Q 1116 1797 991 1539 
Q 866 1281 866 981 
Q 866 578 1086 336 
Q 1306 94 1647 94 
Q 1984 94 2187 284 
Q 2391 475 2391 747 
Q 2391 972 2272 1150 
Q 2050 1481 1375 2016 
z
" transform="scale(0.015625)"/>
      </defs>
      <use xlink:href="#TimesNewRomanPSMT-38"/>
     </g>
    </g>
   </g>
   <g id="text_23">
    <g clip-path="url(#p7351c01c11)">
     <!-- 9 -->
     <g transform="translate(139.401687 75.620397) scale(0.094868 -0.094868)">
      <defs>
       <path id="TimesNewRomanPSMT-39" d="M 338 -88 
L 338 28 
Q 744 34 1094 217 
Q 1444 400 1770 856 
Q 2097 1313 2225 1859 
Q 1734 1544 1338 1544 
Q 891 1544 572 1889 
Q 253 2234 253 2806 
Q 253 3363 572 3797 
Q 956 4325 1575 4325 
Q 2097 4325 2469 3894 
Q 2925 3359 2925 2575 
Q 2925 1869 2578 1258 
Q 2231 647 1613 244 
Q 1109 -88 516 -88 
L 338 -88 
z
M 2275 2091 
Q 2331 2497 2331 2741 
Q 2331 3044 2228 3395 
Q 2125 3747 1936 3934 
Q 1747 4122 1506 4122 
Q 1228 4122 1018 3872 
Q 809 3622 809 3128 
Q 809 2469 1088 2097 
Q 1291 1828 1588 1828 
Q 1731 1828 1928 1897 
Q 2125 1966 2275 2091 
z
" transform="scale(0.015625)"/>
      </defs>
      <use xlink:href="#TimesNewRomanPSMT-39"/>
     </g>
    </g>
   </g>
  </g>
 </g>
 <defs>
  <clipPath id="p7351c01c11">
   <rect x="7.2" y="7.2" width="357.12" height="266.112"/>
  </clipPath>
 </defs>
</svg>
